<svg xmlns="http://www.w3.org/2000/svg" viewBox="0 0 24 24" width="24" height="24" fill="none" aria-hidden="true">
  <g transform="translate(2 4)">
    <path fill="none" stroke="#FFFFFF" stroke-width="1.4" stroke-linecap="round" stroke-linejoin="round" d="M13.000 7.000C13.000 7.000 12.000 16.000 12.000 16.000M17.000 7.000C17.000 7.000 13.000 0.000 13.000 0.000M0.000 7.000C0.000 7.000 20.000 7.000 20.000 7.000M1.500 7.000C1.500 7.000 3.100 14.400 3.100 14.400C3.194 14.859 3.445 15.270 3.810 15.562C4.176 15.854 4.632 16.009 5.100 16.000C5.100 16.000 14.900 16.000 14.900 16.000C15.368 16.009 15.824 15.854 16.190 15.562C16.555 15.270 16.806 14.859 16.900 14.400C16.900 14.400 18.600 7.000 18.600 7.000M2.500 11.500C2.500 11.500 17.500 11.500 17.500 11.500M3.000 7.000C3.000 7.000 7.000 0.000 7.000 0.000M7.000 7.000C7.000 7.000 8.000 16.000 8.000 16.000"/>
  </g>
</svg>
