<svg xmlns="http://www.w3.org/2000/svg" viewBox="0 0 24 24" width="24" height="24" fill="none" aria-hidden="true">
  <path transform="translate(3 2)" fill="none" stroke="#FFFFFF" stroke-width="1.4" stroke-linecap="round" stroke-linejoin="round" d="M16.000 14.000C16.000 14.000 16.000 20.000 16.000 20.000M18.000 10.536C18.000 10.536 18.000 3.000 18.000 3.000C18.000 4.657 13.971 6.000 9.000 6.000C4.029 6.000 0.000 4.657 0.000 3.000C0.000 3.000 0.000 17.000 0.000 17.000C-0.000 17.431 0.278 17.857 0.817 18.249C1.355 18.641 2.141 18.990 3.120 19.272C4.099 19.553 5.249 19.761 6.491 19.881C7.733 20.002 9.039 20.031 10.318 19.968M19.000 17.000C19.000 17.000 13.000 17.000 13.000 17.000M0.000 10.000C0.000 10.485 0.353 10.964 1.030 11.393C1.706 11.823 2.686 12.192 3.884 12.468C5.082 12.744 6.463 12.919 7.908 12.978C9.354 13.037 10.820 12.978 12.182 12.806M0.000 3.000C0.000 1.343 4.029 0.000 9.000 0.000C13.971 0.000 18.000 1.343 18.000 3.000"/>
</svg>
